<?xml version="1.0" encoding="UTF-8" standalone="no"?>
<!-- Created with Inkscape (http://www.inkscape.org/) -->

<svg
   xmlns:dc="http://purl.org/dc/elements/1.1/"
   xmlns:cc="http://creativecommons.org/ns#"
   xmlns:rdf="http://www.w3.org/1999/02/22-rdf-syntax-ns#"
   xmlns:svg="http://www.w3.org/2000/svg"
   xmlns="http://www.w3.org/2000/svg"
   xmlns:sodipodi="http://sodipodi.sourceforge.net/DTD/sodipodi-0.dtd"
   xmlns:inkscape="http://www.inkscape.org/namespaces/inkscape"
   id="svg2"
   version="1.1"
   inkscape:version="0.91 r13725"
   xml:space="preserve"
   width="45.495209"
   height="42.033649"
   viewBox="0 0 45.49521 42.033649"
   sodipodi:docname="barbe.svg"><metadata
     id="metadata8"><rdf:RDF><cc:Work
         rdf:about=""><dc:format>image/svg+xml</dc:format><dc:type
           rdf:resource="http://purl.org/dc/dcmitype/StillImage" /><dc:title></dc:title></cc:Work></rdf:RDF></metadata><defs
     id="defs6"><radialGradient
       fx="0"
       fy="0"
       cx="0"
       cy="0"
       r="1"
       gradientUnits="userSpaceOnUse"
       gradientTransform="matrix(494.73938,0,0,-494.73938,400,400)"
       spreadMethod="pad"
       id="radialGradient24"><stop
         style="stop-opacity:1;stop-color:#f7f7f8"
         offset="0"
         id="stop26" /><stop
         style="stop-opacity:1;stop-color:#f7f7f8"
         offset="0.63689048"
         id="stop28" /><stop
         style="stop-opacity:1;stop-color:#d9dade"
         offset="1"
         id="stop30" /></radialGradient><clipPath
       clipPathUnits="userSpaceOnUse"
       id="clipPath38"><path
         d="M 0,800 800,800 800,0 0,0 0,800 Z"
         id="path40"
         inkscape:connector-curvature="0" /></clipPath><pattern
       y="0"
       x="0"
       height="6"
       width="6"
       patternUnits="userSpaceOnUse"
       id="EMFhbasepattern" /><pattern
       y="0"
       x="0"
       height="6"
       width="6"
       patternUnits="userSpaceOnUse"
       id="EMFhbasepattern-5" /></defs><sodipodi:namedview
     pagecolor="#ffffff"
     bordercolor="#666666"
     borderopacity="1"
     objecttolerance="10"
     gridtolerance="10"
     guidetolerance="10"
     inkscape:pageopacity="0"
     inkscape:pageshadow="2"
     inkscape:window-width="1920"
     inkscape:window-height="1005"
     id="namedview4"
     showgrid="false"
     fit-margin-top="0"
     fit-margin-left="0"
     fit-margin-right="0"
     fit-margin-bottom="0"
     inkscape:zoom="0.6675088"
     inkscape:cx="-206.14288"
     inkscape:cy="382.27253"
     inkscape:window-x="-9"
     inkscape:window-y="-9"
     inkscape:window-maximized="1"
     inkscape:current-layer="g10" /><g
     id="g10"
     inkscape:groupmode="layer"
     inkscape:label="580181"
     transform="matrix(1.25,0,0,-1.25,-706.14289,99.836814)"><path
       id="path32"
       style="fill:#ae3353;fill-opacity:1;fill-rule:nonzero;stroke:none"
       d="m 601.29766,69.371681 c -0.0536,0.80775 -0.53822,3.01593 -0.26869,3.87651 0.26869,0.86139 -1.40004,6.62126 -1.40004,6.62126 -0.2687,-0.50177 -1.88336,-7.25042 -1.74,-9.11657 0.14335,-1.86575 -0.8618,-3.37351 -2.08079,-6.10024 -1.22102,-2.72757 -1.65193,-1.65113 -2.22662,-1.40003 -0.57386,0.2519 -0.50175,2.3331 -0.78889,3.1941 -0.28794,0.86138 -2.44042,2.44042 -3.22973,3.08678 -0.78932,0.64594 -5.02505,3.22851 -6.0298,1.21939 -1.00393,-2.00872 0.072,-2.65507 0.32278,-3.15846 0.25189,-0.50178 3.33868,-1.07604 4.70267,-1.2919 1.36316,-0.21504 1.57821,-0.78931 2.29623,-1.64988 0.71763,-0.86141 0.64514,-1.57985 0.21506,-2.4396 -0.43091,-0.86224 -2.00912,-1.36522 -2.94262,-0.79055 -0.93266,0.57427 -1.36397,2.72715 -2.58418,3.08595 -0.63735,0.1872 -4.22344,0.1872 -4.86119,0 -1.22063,-0.3588 -1.65112,-2.51168 -2.5842,-3.08595 -0.9335,-0.57467 -2.51211,-0.0717 -2.94301,0.79055 -0.43009,0.85975 -0.50259,1.57819 0.21585,2.4396 0.71722,0.86057 0.93308,1.43484 2.29708,1.64988 1.36316,0.21586 4.44994,0.79012 4.70102,1.2919 0.2511,0.50339 1.32754,1.14974 0.32318,3.15846 -1.00476,2.00912 -5.24048,-0.57345 -6.02979,-1.21939 -0.7889,-0.64636 -2.94259,-2.2254 -3.23014,-3.08678 -0.28714,-0.861 -0.21463,-2.9422 -0.78891,-3.1941 -0.57425,-0.2511 -1.00475,-1.32754 -2.22537,1.40003 -1.2198,2.72673 -2.22539,4.23449 -2.08121,6.10024 0.14334,1.86615 -1.4713,8.6148 -1.74082,9.11657 0,0 -1.66872,-5.75987 -1.3988,-6.62126 0.2683,-0.86058 -0.21586,-3.06876 -0.26992,-3.87651 -0.0536,-0.80732 0.0542,-3.39152 0.53822,-4.68341 0.48455,-1.29149 1.23863,-1.18376 1.77686,-1.82971 0.53821,-0.64552 0.53821,-1.66913 0.32276,-2.96104 -0.21544,-1.29188 0.53864,-2.47606 1.02278,-3.33744 0.48458,-0.861 2.09923,-2.85291 2.53014,-3.92976 0.4305,-1.07685 1.382,-1.0408 1.88419,-2.40561 0.50217,-1.36316 1.79407,-2.22497 2.65587,-2.65505 0.86141,-0.4305 1.78588,-1.32713 3.66064,-1.32713 0.78889,0 1.88213,0.0942 2.8701,0.0753 0.46244,-0.008 1.3861,-0.01 1.84691,0 0.9896,0.0222 2.08201,-0.0753 2.87133,-0.0753 1.87516,0 2.80046,0.89663 3.66104,1.32713 0.861,0.43008 2.15289,1.29189 2.65548,2.65505 0.50258,1.36481 1.45368,1.32876 1.88458,2.40561 0.4309,1.07685 2.04598,3.06876 2.52973,3.92976 0.48415,0.86138 1.23782,2.04556 1.02237,3.33744 -0.21586,1.29191 -0.21586,2.31552 0.32277,2.96104 0.53823,0.64595 1.29189,0.53822 1.77686,1.82971 0.48456,1.29189 0.59269,3.87609 0.53822,4.68341"
       inkscape:connector-curvature="0" /></g></svg>