<?xml version="1.0" encoding="UTF-8" standalone="no"?>
<!-- Created with Inkscape (http://www.inkscape.org/) -->

<svg
   xmlns:dc="http://purl.org/dc/elements/1.1/"
   xmlns:cc="http://creativecommons.org/ns#"
   xmlns:rdf="http://www.w3.org/1999/02/22-rdf-syntax-ns#"
   xmlns:svg="http://www.w3.org/2000/svg"
   xmlns="http://www.w3.org/2000/svg"
   xmlns:sodipodi="http://sodipodi.sourceforge.net/DTD/sodipodi-0.dtd"
   xmlns:inkscape="http://www.inkscape.org/namespaces/inkscape"
   id="svg2"
   version="1.1"
   inkscape:version="0.91 r13725"
   xml:space="preserve"
   width="66.404526"
   height="20.012798"
   viewBox="0 0 66.404527 20.012798"
   sodipodi:docname="classicGlass.svg"><metadata
     id="metadata8"><rdf:RDF><cc:Work
         rdf:about=""><dc:format>image/svg+xml</dc:format><dc:type
           rdf:resource="http://purl.org/dc/dcmitype/StillImage" /><dc:title></dc:title></cc:Work></rdf:RDF></metadata><defs
     id="defs6"><radialGradient
       fx="0"
       fy="0"
       cx="0"
       cy="0"
       r="1"
       gradientUnits="userSpaceOnUse"
       gradientTransform="matrix(494.73938,0,0,-494.73938,400,400)"
       spreadMethod="pad"
       id="radialGradient24"><stop
         style="stop-opacity:1;stop-color:#f7f7f8"
         offset="0"
         id="stop26" /><stop
         style="stop-opacity:1;stop-color:#f7f7f8"
         offset="0.63689048"
         id="stop28" /><stop
         style="stop-opacity:1;stop-color:#d9dade"
         offset="1"
         id="stop30" /></radialGradient><clipPath
       clipPathUnits="userSpaceOnUse"
       id="clipPath38"><path
         d="M 0,800 800,800 800,0 0,0 0,800 Z"
         id="path40"
         inkscape:connector-curvature="0" /></clipPath><pattern
       y="0"
       x="0"
       height="6"
       width="6"
       patternUnits="userSpaceOnUse"
       id="EMFhbasepattern" /></defs><sodipodi:namedview
     pagecolor="#ffffff"
     bordercolor="#666666"
     borderopacity="1"
     objecttolerance="10"
     gridtolerance="10"
     guidetolerance="10"
     inkscape:pageopacity="0"
     inkscape:pageshadow="2"
     inkscape:window-width="1920"
     inkscape:window-height="1005"
     id="namedview4"
     showgrid="false"
     fit-margin-top="0"
     fit-margin-left="0"
     fit-margin-right="0"
     fit-margin-bottom="0"
     inkscape:zoom="0.6675088"
     inkscape:cx="-132.25086"
     inkscape:cy="199.52853"
     inkscape:window-x="-9"
     inkscape:window-y="-9"
     inkscape:window-maximized="1"
     inkscape:current-layer="g10" /><g
     id="g10"
     inkscape:groupmode="layer"
     inkscape:label="580181"
     transform="matrix(1.25,0,0,-1.25,-632.25086,260.55996)"><path
       id="path36"
       style="fill:#ae3353;fill-opacity:1;fill-rule:nonzero;stroke:none"
       d="m 554.07735,200.94796 c -0.49884,-3.0216 -1.44218,-5.46633 -2.57362,-6.01812 -1.10009,-0.53716 -2.99304,-1.23526 -5.86067,-1.23526 -2.86554,0 -5.41478,0.10521 -6.62425,1.34046 -1.20809,1.23456 -2.83908,4.67836 -2.52207,6.75454 0.31561,2.07618 0.8674,2.78612 3.7845,3.59987 2.91779,0.81443 5.36182,0.81443 5.36182,0.81443 0,0 6.38529,0.42152 7.64841,-0.5246 1.09939,-0.82629 1.28612,-1.70902 0.78588,-4.73132 z m -28.37115,-5.91292 c -1.20879,-1.23525 -3.75732,-1.34046 -6.62356,-1.34046 -2.86624,0 -4.75917,0.6981 -5.85997,1.23526 -1.12936,0.55179 -2.07478,2.99652 -2.57502,6.01812 -0.49953,3.0223 -0.31142,3.90503 0.78936,4.73132 1.26035,0.94612 7.64563,0.5246 7.64563,0.5246 0,0 2.44613,0 5.36113,-0.81443 2.91919,-0.81375 3.47097,-1.52369 3.78589,-3.59987 0.31561,-2.07618 -1.31398,-5.51998 -2.52346,-6.75454 z m 29.74992,13.41293 c -0.84162,0 -7.71737,-0.11709 -9.28636,-0.28147 -2.08732,-0.21876 -7.63865,-1.08546 -9.14632,-1.50697 -1.50627,-0.4208 -4.65954,-0.84021 -4.65954,-0.84021 0,0 -3.15398,0.41941 -4.66165,0.84021 -1.50627,0.42151 -7.0583,1.28821 -9.14562,1.50697 -1.56967,0.16442 -8.44544,0.28147 -9.28566,0.28147 -0.84162,0 -2.10334,-0.70088 -3.47028,-1.31467 0,0 0.24593,-2.78613 0.84161,-3.3811 0,0 0.73572,-0.17627 0.98166,-0.63122 0.24454,-0.45565 1.08546,-3.36369 1.43521,-4.45054 0.35114,-1.08686 1.19276,-3.57409 2.20785,-4.3098 1.01649,-0.73504 3.53996,-1.89086 7.0806,-1.89086 3.53716,0 7.14747,-0.59707 9.60126,3.36299 2.45241,3.95867 2.38273,5.95681 3.04809,6.34139 0.66604,0.38597 1.36693,0.36995 1.36693,0.36995 0,0 0.70088,0.0161 1.36485,-0.36995 0.66743,-0.38458 0.59637,-2.38272 3.05085,-6.34139 2.451,-3.96006 6.06132,-3.36299 9.60057,-3.36299 3.53926,0 6.06201,1.15582 7.07851,1.89086 1.01649,0.73571 1.85741,3.22294 2.20785,4.3098 0.35114,1.08685 1.19275,3.99489 1.43591,4.45054 0.24524,0.45495 0.98095,0.63122 0.98095,0.63122 0.59569,0.59497 0.84092,3.3811 0.84092,3.3811 -1.36553,0.61379 -2.62727,1.31467 -3.46819,1.31467"
       inkscape:connector-curvature="0" /></g></svg>