<?xml version="1.0" encoding="UTF-8" standalone="no"?>
<!-- Created with Inkscape (http://www.inkscape.org/) -->

<svg
   xmlns:dc="http://purl.org/dc/elements/1.1/"
   xmlns:cc="http://creativecommons.org/ns#"
   xmlns:rdf="http://www.w3.org/1999/02/22-rdf-syntax-ns#"
   xmlns:svg="http://www.w3.org/2000/svg"
   xmlns="http://www.w3.org/2000/svg"
   xmlns:sodipodi="http://sodipodi.sourceforge.net/DTD/sodipodi-0.dtd"
   xmlns:inkscape="http://www.inkscape.org/namespaces/inkscape"
   id="svg2"
   version="1.1"
   inkscape:version="0.91 r13725"
   xml:space="preserve"
   width="33.753609"
   height="86.37188"
   viewBox="0 0 33.753609 86.37188"
   sodipodi:docname="genderMale.svg"><metadata
     id="metadata8"><rdf:RDF><cc:Work
         rdf:about=""><dc:format>image/svg+xml</dc:format><dc:type
           rdf:resource="http://purl.org/dc/dcmitype/StillImage" /><dc:title></dc:title></cc:Work></rdf:RDF></metadata><defs
     id="defs6"><radialGradient
       fx="0"
       fy="0"
       cx="0"
       cy="0"
       r="1"
       gradientUnits="userSpaceOnUse"
       gradientTransform="matrix(494.73938,0,0,-494.73938,400,400)"
       spreadMethod="pad"
       id="radialGradient24"><stop
         style="stop-opacity:1;stop-color:#f7f7f8"
         offset="0"
         id="stop26" /><stop
         style="stop-opacity:1;stop-color:#f7f7f8"
         offset="0.63689048"
         id="stop28" /><stop
         style="stop-opacity:1;stop-color:#d9dade"
         offset="1"
         id="stop30" /></radialGradient><clipPath
       clipPathUnits="userSpaceOnUse"
       id="clipPath38"><path
         d="M 0,800 800,800 800,0 0,0 0,800 Z"
         id="path40"
         inkscape:connector-curvature="0" /></clipPath></defs><sodipodi:namedview
     pagecolor="#ffffff"
     bordercolor="#666666"
     borderopacity="1"
     objecttolerance="10"
     gridtolerance="10"
     guidetolerance="10"
     inkscape:pageopacity="0"
     inkscape:pageshadow="2"
     inkscape:window-width="1920"
     inkscape:window-height="1005"
     id="namedview4"
     showgrid="false"
     fit-margin-top="0"
     fit-margin-left="0"
     fit-margin-right="0"
     fit-margin-bottom="0"
     inkscape:zoom="0.6675088"
     inkscape:cx="13.512765"
     inkscape:cy="-62.049526"
     inkscape:window-x="-9"
     inkscape:window-y="-9"
     inkscape:window-maximized="1"
     inkscape:current-layer="g10" /><g
     id="g10"
     inkscape:groupmode="layer"
     inkscape:label="580181"
     transform="matrix(1.25,0,0,-1.25,-486.48724,588.4971)"><g
       id="g4246"
       transform="matrix(0.7015423,0,0,-0.7015423,1515.0984,742.24004)"
       style="fill:#a4a4a4;fill-opacity:1"
       inkscape:export-filename="C:\Users\gallardc\Pictures\averageIotVisage.png"
       inkscape:export-xdpi="88.81691"
       inkscape:export-ydpi="88.81691"><g
         transform="matrix(0.30056376,0,0,-0.30056376,-1587.4069,387.22675)"
         id="g142"
         style="fill:#a4a4a4;fill-opacity:1"><path
           inkscape:connector-curvature="0"
           id="path144"
           style="fill:#a4a4a4;fill-opacity:1;fill-rule:nonzero;stroke:none"
           d="M 0,0 C 19.067,6.018 40.211,-15.967 31.509,-34.562 26.016,-53.257 -1.691,-58.157 -13.368,-42.731 -26.201,-29.118 -18.438,-3.712 0,0" /></g><g
         transform="matrix(0.30056376,0,0,-0.30056376,-1600.021,405.7471)"
         id="g146"
         style="fill:#a4a4a4;fill-opacity:1"><path
           inkscape:connector-curvature="0"
           id="path148"
           style="fill:#a4a4a4;fill-opacity:1;fill-rule:nonzero;stroke:none"
           d="m 0,0 c 17.367,6.873 36.435,3.583 54.641,4.327 15.707,-0.271 33.862,2.113 46.812,-8.814 9.845,-7.778 10.245,-21.4 10.36,-32.912 -0.162,-25.196 0.136,-50.43 -0.096,-75.664 0.232,-5.676 -2.063,-14.389 -9.076,-14.107 -8.276,-2.045 -13.784,6.871 -13.513,14.107 -0.13,24.51 0.06,48.98 -0.047,73.46 -2.056,-0.03 -6.156,-0.089 -8.214,-0.131 -0.352,-70.2 0.187,-140.423 -0.282,-210.583 1.807,-16.843 -27.7,-20.669 -29.119,-3.311 -0.624,42.169 -0.046,84.42 -0.226,126.588 l -6.908,0 c 0.051,-36.797 -0.09,-73.572 0.071,-110.377 0.046,-7.949 -0.649,-16.17 -3.687,-23.646 -9.564,-7.889 -27.745,-3.955 -27.147,10.394 -0.598,70.19 0.141,140.431 -0.347,210.624 l -6.595,0 c -0.423,-23.273 0.045,-46.546 -0.167,-69.819 0,-7.638 -3.779,-19.581 -13.553,-17.306 -5.744,-0.523 -9.474,6.086 -8.985,11.177 -0.277,29.513 -0.167,59.055 -0.021,88.556 C -16.452,-16.219 -10.917,-4.275 0,0" /></g></g></g></svg>