<?xml version="1.0" encoding="UTF-8" standalone="no"?>
<!-- Created with Inkscape (http://www.inkscape.org/) -->

<svg
   xmlns:dc="http://purl.org/dc/elements/1.1/"
   xmlns:cc="http://creativecommons.org/ns#"
   xmlns:rdf="http://www.w3.org/1999/02/22-rdf-syntax-ns#"
   xmlns:svg="http://www.w3.org/2000/svg"
   xmlns="http://www.w3.org/2000/svg"
   xmlns:sodipodi="http://sodipodi.sourceforge.net/DTD/sodipodi-0.dtd"
   xmlns:inkscape="http://www.inkscape.org/namespaces/inkscape"
   id="svg2"
   version="1.1"
   inkscape:version="0.91 r13725"
   xml:space="preserve"
   width="38.561054"
   height="86.372002"
   viewBox="0 0 38.561055 86.372002"
   sodipodi:docname="genderFemale.svg"><metadata
     id="metadata8"><rdf:RDF><cc:Work
         rdf:about=""><dc:format>image/svg+xml</dc:format><dc:type
           rdf:resource="http://purl.org/dc/dcmitype/StillImage" /><dc:title></dc:title></cc:Work></rdf:RDF></metadata><defs
     id="defs6"><radialGradient
       fx="0"
       fy="0"
       cx="0"
       cy="0"
       r="1"
       gradientUnits="userSpaceOnUse"
       gradientTransform="matrix(494.73938,0,0,-494.73938,400,400)"
       spreadMethod="pad"
       id="radialGradient24"><stop
         style="stop-opacity:1;stop-color:#f7f7f8"
         offset="0"
         id="stop26" /><stop
         style="stop-opacity:1;stop-color:#f7f7f8"
         offset="0.63689048"
         id="stop28" /><stop
         style="stop-opacity:1;stop-color:#d9dade"
         offset="1"
         id="stop30" /></radialGradient><clipPath
       clipPathUnits="userSpaceOnUse"
       id="clipPath38"><path
         d="M 0,800 800,800 800,0 0,0 0,800 Z"
         id="path40"
         inkscape:connector-curvature="0" /></clipPath><pattern
       y="0"
       x="0"
       height="6"
       width="6"
       patternUnits="userSpaceOnUse"
       id="EMFhbasepattern" /></defs><sodipodi:namedview
     pagecolor="#ffffff"
     bordercolor="#666666"
     borderopacity="1"
     objecttolerance="10"
     gridtolerance="10"
     guidetolerance="10"
     inkscape:pageopacity="0"
     inkscape:pageshadow="2"
     inkscape:window-width="1920"
     inkscape:window-height="1005"
     id="namedview4"
     showgrid="false"
     fit-margin-top="0"
     fit-margin-left="0"
     fit-margin-right="0"
     fit-margin-bottom="0"
     inkscape:zoom="0.6675088"
     inkscape:cx="-159.46069"
     inkscape:cy="-42.684546"
     inkscape:window-x="-9"
     inkscape:window-y="-9"
     inkscape:window-maximized="1"
     inkscape:current-layer="g10" /><g
     id="g10"
     inkscape:groupmode="layer"
     inkscape:label="580181"
     transform="matrix(1.25,0,0,-1.25,-659.46069,569.13224)"><g
       id="g5555"
       transform="matrix(3.6368861,0,0,3.6368861,-1391.1381,-1018.387)"><path
         style="fill:#a4a4a4;fill-opacity:1;fill-rule:nonzero;stroke:none"
         d="m 531.49704,405.17522 c 0.99905,0.22014 2.04891,-0.72813 1.82878,-1.76105 -0.0847,-1.33772 -2.04891,-1.74412 -2.77704,-0.67732 -0.7112,0.86358 -0.1016,2.21824 0.94826,2.43837 z"
         id="path5544"
         inkscape:connector-curvature="0" /><path
         style="fill:#a4a4a4;fill-opacity:1;fill-rule:nonzero;stroke:none"
         d="m 529.38038,401.12818 c 0.762,0.72813 1.89653,0.4572 2.86171,0.508 0.77893,0.0508 1.7272,-0.0508 2.20133,-0.77893 0.5588,-0.94825 0.7112,-2.06585 1.06678,-3.08185 0.22013,-0.88051 0.69426,-1.74411 0.49106,-2.67544 -0.4064,-0.13547 -0.91437,-0.11854 -1.11757,0.32173 -0.4572,1.23613 -0.762,2.52305 -1.20227,3.77611 -0.0508,0.2032 -0.22013,0.33867 -0.37253,0.47414 0.57573,-2.47225 1.38853,-4.89372 2.06584,-7.34903 -0.60958,-0.0169 -1.21918,-0.0169 -1.82878,0 -0.0508,-1.76104 0.0169,-3.52211 -0.0339,-5.28315 0.0169,-0.38947 -0.254,-0.84667 -0.69427,-0.82973 -0.42333,-0.0339 -0.74504,0.4064 -0.69424,0.8128 -0.0339,1.76104 0.0169,3.53904 -0.0169,5.30008 -0.11853,0 -0.32173,0 -0.44026,-0.0169 -0.0339,-1.82878 0.0508,-3.65758 -0.0339,-5.46942 -0.0508,-0.82974 -1.28693,-0.8128 -1.3716,0 -0.0339,1.82877 0,3.65757 -0.0169,5.46942 -0.6096,0 -1.21919,0 -1.82879,0.0169 0.57573,2.42145 1.25306,4.80905 1.81185,7.23049 -0.0677,-0.0508 -0.2032,-0.13546 -0.27093,-0.18626 -0.45719,-1.30387 -0.72812,-2.65852 -1.18532,-3.94545 -0.13547,-0.59267 -1.18533,-0.5588 -1.20226,0.0847 0.0847,0.99906 0.508,1.94733 0.74506,2.91251 0.32173,0.9144 0.4064,1.96427 1.06679,2.70931 z"
         id="path5546"
         inkscape:connector-curvature="0" /></g></g></svg>