<?xml version="1.0" encoding="UTF-8" standalone="no"?>
<!-- Created with Inkscape (http://www.inkscape.org/) -->

<svg
   xmlns:dc="http://purl.org/dc/elements/1.1/"
   xmlns:cc="http://creativecommons.org/ns#"
   xmlns:rdf="http://www.w3.org/1999/02/22-rdf-syntax-ns#"
   xmlns:svg="http://www.w3.org/2000/svg"
   xmlns="http://www.w3.org/2000/svg"
   xmlns:sodipodi="http://sodipodi.sourceforge.net/DTD/sodipodi-0.dtd"
   xmlns:inkscape="http://www.inkscape.org/namespaces/inkscape"
   id="svg2"
   version="1.1"
   inkscape:version="0.91 r13725"
   xml:space="preserve"
   width="66.404999"
   height="19.989603"
   viewBox="0 0 66.405 19.989603"
   sodipodi:docname="SolarGlass.svg"><metadata
     id="metadata8"><rdf:RDF><cc:Work
         rdf:about=""><dc:format>image/svg+xml</dc:format><dc:type
           rdf:resource="http://purl.org/dc/dcmitype/StillImage" /><dc:title></dc:title></cc:Work></rdf:RDF></metadata><defs
     id="defs6"><radialGradient
       fx="0"
       fy="0"
       cx="0"
       cy="0"
       r="1"
       gradientUnits="userSpaceOnUse"
       gradientTransform="matrix(494.73938,0,0,-494.73938,400,400)"
       spreadMethod="pad"
       id="radialGradient24"><stop
         style="stop-opacity:1;stop-color:#f7f7f8"
         offset="0"
         id="stop26" /><stop
         style="stop-opacity:1;stop-color:#f7f7f8"
         offset="0.63689048"
         id="stop28" /><stop
         style="stop-opacity:1;stop-color:#d9dade"
         offset="1"
         id="stop30" /></radialGradient><clipPath
       clipPathUnits="userSpaceOnUse"
       id="clipPath38"><path
         d="M 0,800 800,800 800,0 0,0 0,800 Z"
         id="path40"
         inkscape:connector-curvature="0" /></clipPath><pattern
       y="0"
       x="0"
       height="6"
       width="6"
       patternUnits="userSpaceOnUse"
       id="EMFhbasepattern" /><pattern
       y="0"
       x="0"
       height="6"
       width="6"
       patternUnits="userSpaceOnUse"
       id="EMFhbasepattern-5" /></defs><sodipodi:namedview
     pagecolor="#ffffff"
     bordercolor="#666666"
     borderopacity="1"
     objecttolerance="10"
     gridtolerance="10"
     guidetolerance="10"
     inkscape:pageopacity="0"
     inkscape:pageshadow="2"
     inkscape:window-width="1920"
     inkscape:window-height="1005"
     id="namedview4"
     showgrid="false"
     fit-margin-top="0"
     fit-margin-left="0"
     fit-margin-right="0"
     fit-margin-bottom="0"
     inkscape:zoom="0.6675088"
     inkscape:cx="-188.44159"
     inkscape:cy="272.86736"
     inkscape:window-x="-9"
     inkscape:window-y="-9"
     inkscape:window-maximized="1"
     inkscape:current-layer="g10" /><g
     id="g10"
     inkscape:groupmode="layer"
     inkscape:label="580181"
     transform="matrix(1.25,0,0,-1.25,-688.44159,187.19794)"><path
       inkscape:connector-curvature="0"
       id="path5570"
       d="m 600.40887,149.75835 c -0.80931,0 -7.68822,-0.11573 -9.30683,-0.28915 -2.08104,-0.23111 -7.63039,-1.09832 -9.13337,-1.50295 -1.50299,-0.40464 -4.62455,-0.80931 -4.62455,-0.80931 0,0 -3.17929,0.40467 -4.68225,0.80931 -1.50298,0.40463 -7.05236,1.27174 -9.1334,1.50295 -1.56078,0.17342 -8.43973,0.28915 -9.30683,0.28915 -0.8671,0 -2.08101,-0.69368 -3.46837,-1.32957 0,0 0.23111,-2.77469 0.8671,-3.35274 0,0 0.69368,-0.17342 0.98269,-0.63589 0.23112,-0.46243 1.04052,-3.35274 1.38736,-4.45106 0.34684,-1.09835 1.21395,-3.58403 2.25443,-4.3355 0.98273,-0.69369 3.5262,-1.84976 7.0524,-1.84976 3.52613,0 7.16796,-0.63585 9.59584,3.35271 2.48568,3.93087 2.37009,5.95408 3.06377,6.30092 0.63585,0.40464 1.38726,0.40464 1.38726,0.40464 0,0 0.69368,0 1.32956,-0.40464 0.69368,-0.34684 0.57806,-2.37005 3.06377,-6.30092 2.42788,-3.98856 6.06961,-3.35271 9.59584,-3.35271 3.5262,0 6.06971,1.15607 7.11016,1.84976 0.98269,0.75147 1.84979,3.23715 2.19663,4.3355 0.34684,1.09832 1.15615,3.98863 1.44519,4.45106 0.23112,0.46247 0.98269,0.63589 0.98269,0.63589 0.57809,0.57805 0.80931,3.35274 0.80931,3.35274 -1.38736,0.63589 -2.6013,1.32957 -3.4684,1.32957 z"
       style="fill:#ae3353;fill-opacity:1;fill-rule:nonzero;stroke:none" /></g></svg>